<?xml version="1.0" encoding="UTF-8" standalone="no"?>
<!-- Created with Inkscape (http://www.inkscape.org/) -->

<svg
   xmlns:dc="http://purl.org/dc/elements/1.1/"
   xmlns:cc="http://creativecommons.org/ns#"
   xmlns:rdf="http://www.w3.org/1999/02/22-rdf-syntax-ns#"
   xmlns:svg="http://www.w3.org/2000/svg"
   xmlns="http://www.w3.org/2000/svg"
   xmlns:sodipodi="http://sodipodi.sourceforge.net/DTD/sodipodi-0.dtd"
   xmlns:inkscape="http://www.inkscape.org/namespaces/inkscape"
   width="1052.3622"
   height="744.09448"
   id="svg4110"
   version="1.1"
   inkscape:version="0.48.4 r9939"
   inkscape:export-filename="/home/rickard/wrk/personal/scalacheck-web/src/img/logo_full_w200.png"
   inkscape:export-xdpi="20.448057"
   inkscape:export-ydpi="20.448057"
   sodipodi:docname="logo_full.svg">
  <defs
     id="defs4112" />
  <sodipodi:namedview
     id="base"
     pagecolor="#ffffff"
     bordercolor="#666666"
     borderopacity="1.0"
     inkscape:pageopacity="0"
     inkscape:pageshadow="2"
     inkscape:zoom="0.4320688"
     inkscape:cx="-248.28999"
     inkscape:cy="359.6694"
     inkscape:document-units="px"
     inkscape:current-layer="layer1"
     showgrid="false"
     inkscape:window-width="1920"
     inkscape:window-height="1181"
     inkscape:window-x="0"
     inkscape:window-y="0"
     inkscape:window-maximized="0"
     showguides="true"
     fit-margin-top="0"
     fit-margin-left="0"
     fit-margin-right="0"
     fit-margin-bottom="0" />
  <metadata
     id="metadata4115">
    <rdf:RDF>
      <cc:Work
         rdf:about="">
        <dc:format>image/svg+xml</dc:format>
        <dc:type
           rdf:resource="http://purl.org/dc/dcmitype/StillImage" />
        <dc:title></dc:title>
      </cc:Work>
    </rdf:RDF>
  </metadata>
  <g
     inkscape:label="Layer 1"
     inkscape:groupmode="layer"
     id="layer1"
     transform="translate(-167.10932,182.23206)">
    <text
       xml:space="preserve"
       style="font-size:48.18857574px;font-style:normal;font-weight:normal;line-height:87.99999952%;letter-spacing:0px;word-spacing:0px;fill:#000000;fill-opacity:1;stroke:#000000;stroke-width:4.54601669;stroke-linejoin:round;stroke-miterlimit:4;stroke-opacity:1;stroke-dasharray:none;font-family:Sans"
       x="566.80023"
       y="185.61125"
       id="text4085"
       sodipodi:linespacing="88%"
       transform="scale(1.0186452,0.98169608)"
       inkscape:export-filename="/home/rickard/workspace/scalacheck-web/src/img/logo_scalacheck_h61.png"
       inkscape:export-xdpi="20.333334"
       inkscape:export-ydpi="20.333334"><tspan
         sodipodi:role="line"
         id="tspan4087"
         x="566.80023"
         y="185.61125"
         style="font-size:173.47888184px;font-style:normal;font-variant:normal;font-weight:normal;font-stretch:normal;line-height:87.99999952%;letter-spacing:7.26443005px;stroke:#000000;stroke-width:4.54601669;stroke-linejoin:round;stroke-miterlimit:4;stroke-opacity:1;stroke-dasharray:none;font-family:Liberation Mono;-inkscape-font-specification:Liberation Mono">SCALA</tspan><tspan
         sodipodi:role="line"
         x="566.80023"
         y="338.27267"
         id="tspan4089"
         style="font-size:173.47888184px;font-style:normal;font-variant:normal;font-weight:normal;font-stretch:normal;line-height:87.99999952%;letter-spacing:7.26443005px;stroke:#000000;stroke-width:4.54601669;stroke-linejoin:round;stroke-miterlimit:4;stroke-opacity:1;stroke-dasharray:none;font-family:Liberation Mono;-inkscape-font-specification:Liberation Mono">CHECK</tspan></text>
    <path
       style="fill:#000000;fill-opacity:0.94117647;stroke:none"
       d="M 224.78125 248.25 C 157.81858 249.08872 100.34328 299.62445 92.53125 367.90625 C 84.057182 441.97464 137.24411 508.90093 211.3125 517.375 C 285.38089 525.84907 352.27593 472.66214 360.75 398.59375 C 369.22407 324.52536 316.06839 257.59907 242 249.125 C 236.21341 248.46296 230.45605 248.17892 224.78125 248.25 z M 286.875 326.53125 A 2.2267227 2.2267227 0 0 1 288.96875 329.53125 L 239.34375 461.21875 A 2.2267227 2.2267227 0 0 1 237.25 462.65625 A 2.2267227 2.2267227 0 0 1 237.09375 462.65625 C 230.42379 462.68405 223.76375 462.7221 217.09375 462.75 A 2.2267227 2.2267227 0 0 1 215 461.3125 L 164.34375 330.0625 A 2.2267227 2.2267227 0 0 1 166.40625 327.03125 L 184.90625 326.9375 A 2.2267227 2.2267227 0 0 1 187 328.40625 L 198.59375 360.625 L 254.71875 360.375 L 266.03125 328.09375 A 2.2267227 2.2267227 0 0 1 268.125 326.59375 C 274.37745 326.56755 280.6226 326.55745 286.875 326.53125 z M 247.8125 379.65625 C 233.82217 379.71484 219.83407 379.78515 205.84375 379.84375 L 227.09375 436.5 L 247.8125 379.65625 z "
       transform="translate(167.10932,-182.23206)"
       id="path3882"
       inkscape:export-filename="/home/rickard/wrk/personal/scalacheck-web/src/img/favicon.ico.png"
       inkscape:export-xdpi="5.3299999"
       inkscape:export-ydpi="5.3299999" />
  </g>
</svg>
